{
	"asset":{
		"generator":"Khronos glTF Blender I/O v4.0.44",
		"version":"2.0"
	},
	"scene":0,
	"scenes":[
		{
			"name":"Scene",
			"nodes":[
				0
			]
		}
	],
	"nodes":[
		{
			"mesh":0,
			"name":"Female_Base_02.015"
		}
	],
	"materials":[
		{
			"doubleSided":true,
			"name":"PCF1_C05_03_BM.png",
			"pbrMetallicRoughness":{
				"baseColorFactor":[
					0.800000011920929,
					0.800000011920929,
					0.800000011920929,
					1
				],
				"metallicFactor":0,
				"roughnessFactor":0.5
			}
		},
		{
			"doubleSided":true,
			"name":"PCF1_C05_02_BM.png",
			"pbrMetallicRoughness":{
				"baseColorFactor":[
					0.800000011920929,
					0.800000011920929,
					0.800000011920929,
					1
				],
				"metallicFactor":0,
				"roughnessFactor":0.5
			}
		},
		{
			"doubleSided":true,
			"name":"PCM1_E00_02_BM.png",
			"pbrMetallicRoughness":{
				"metallicFactor":0,
				"roughnessFactor":0.5
			}
		},
		{
			"doubleSided":true,
			"name":"PCF1_C05_02_BM.png.001",
			"pbrMetallicRoughness":{
				"baseColorFactor":[
					0.800000011920929,
					0.800000011920929,
					0.800000011920929,
					1
				],
				"metallicFactor":0,
				"roughnessFactor":0.5
			}
		},
		{
			"doubleSided":true,
			"name":"PCF1_C00_02_BM.png",
			"pbrMetallicRoughness":{
				"baseColorFactor":[
					0.800000011920929,
					0.800000011920929,
					0.800000011920929,
					1
				],
				"metallicFactor":0,
				"roughnessFactor":0.5
			}
		},
		{
			"doubleSided":true,
			"name":"PCF1_C00_02_BM.png.002",
			"pbrMetallicRoughness":{
				"baseColorFactor":[
					0.800000011920929,
					0.800000011920929,
					0.800000011920929,
					1
				],
				"metallicFactor":0,
				"roughnessFactor":0.5
			}
		}
	],
	"meshes":[
		{
			"name":"Female_Base_02.015",
			"primitives":[
				{
					"attributes":{
						"POSITION":0,
						"NORMAL":1,
						"TEXCOORD_0":2
					},
					"indices":3,
					"material":0
				},
				{
					"attributes":{
						"POSITION":4,
						"NORMAL":5,
						"TEXCOORD_0":6
					},
					"indices":7,
					"material":1
				},
				{
					"attributes":{
						"POSITION":8,
						"NORMAL":9,
						"TEXCOORD_0":10
					},
					"indices":11,
					"material":2
				},
				{
					"attributes":{
						"POSITION":12,
						"NORMAL":13,
						"TEXCOORD_0":14
					},
					"indices":15,
					"material":3
				},
				{
					"attributes":{
						"POSITION":16,
						"NORMAL":17,
						"TEXCOORD_0":18
					},
					"indices":19,
					"material":4
				},
				{
					"attributes":{
						"POSITION":20,
						"NORMAL":21,
						"TEXCOORD_0":22
					},
					"indices":23,
					"material":5
				}
			]
		}
	],
	"accessors":[
		{
			"bufferView":0,
			"componentType":5126,
			"count":8,
			"max":[
				0.09568742662668228,
				1.4464012384414673,
				0.12357968837022781
			],
			"min":[
				-0.09568742662668228,
				1.3818769454956055,
				0.05662083253264427
			],
			"type":"VEC3"
		},
		{
			"bufferView":1,
			"componentType":5126,
			"count":8,
			"type":"VEC3"
		},
		{
			"bufferView":2,
			"componentType":5126,
			"count":8,
			"type":"VEC2"
		},
		{
			"bufferView":3,
			"componentType":5123,
			"count":12,
			"type":"SCALAR"
		},
		{
			"bufferView":4,
			"componentType":5126,
			"count":190,
			"max":[
				0.17532116174697876,
				1.5362212657928467,
				0.20656931400299072
			],
			"min":[
				-0.17532116174697876,
				1.1146212816238403,
				-0.11295060068368912
			],
			"type":"VEC3"
		},
		{
			"bufferView":5,
			"componentType":5126,
			"count":190,
			"type":"VEC3"
		},
		{
			"bufferView":6,
			"componentType":5126,
			"count":190,
			"type":"VEC2"
		},
		{
			"bufferView":7,
			"componentType":5123,
			"count":792,
			"type":"SCALAR"
		},
		{
			"bufferView":8,
			"componentType":5126,
			"count":210,
			"max":[
				0.19225627183914185,
				1.9979175329208374,
				0.24734166264533997
			],
			"min":[
				-0.19225627183914185,
				1.481300950050354,
				-0.1538718342781067
			],
			"type":"VEC3"
		},
		{
			"bufferView":9,
			"componentType":5126,
			"count":210,
			"type":"VEC3"
		},
		{
			"bufferView":10,
			"componentType":5126,
			"count":210,
			"type":"VEC2"
		},
		{
			"bufferView":11,
			"componentType":5123,
			"count":1002,
			"type":"SCALAR"
		},
		{
			"bufferView":12,
			"componentType":5126,
			"count":128,
			"max":[
				0.25988391041755676,
				1.1340808868408203,
				0.1929914802312851
			],
			"min":[
				-0.25988391041755676,
				0.7323050498962402,
				-0.1154589056968689
			],
			"type":"VEC3"
		},
		{
			"bufferView":13,
			"componentType":5126,
			"count":128,
			"type":"VEC3"
		},
		{
			"bufferView":14,
			"componentType":5126,
			"count":128,
			"type":"VEC2"
		},
		{
			"bufferView":15,
			"componentType":5123,
			"count":504,
			"type":"SCALAR"
		},
		{
			"bufferView":16,
			"componentType":5126,
			"count":190,
			"max":[
				0.25988391041755676,
				0.7868565320968628,
				0.17714637517929077
			],
			"min":[
				-0.25988391041755676,
				-1.4640502143947742e-08,
				-0.11005003750324249
			],
			"type":"VEC3"
		},
		{
			"bufferView":17,
			"componentType":5126,
			"count":190,
			"type":"VEC3"
		},
		{
			"bufferView":18,
			"componentType":5126,
			"count":190,
			"type":"VEC2"
		},
		{
			"bufferView":19,
			"componentType":5123,
			"count":882,
			"type":"SCALAR"
		},
		{
			"bufferView":20,
			"componentType":5126,
			"count":186,
			"max":[
				0.8361133933067322,
				1.4634220600128174,
				0.046004194766283035
			],
			"min":[
				-0.8361133933067322,
				1.332322120666504,
				-0.09489651769399643
			],
			"type":"VEC3"
		},
		{
			"bufferView":21,
			"componentType":5126,
			"count":186,
			"type":"VEC3"
		},
		{
			"bufferView":22,
			"componentType":5126,
			"count":186,
			"type":"VEC2"
		},
		{
			"bufferView":23,
			"componentType":5123,
			"count":792,
			"type":"SCALAR"
		}
	],
	"bufferViews":[
		{
			"buffer":0,
			"byteLength":96,
			"byteOffset":0,
			"target":34962
		},
		{
			"buffer":0,
			"byteLength":96,
			"byteOffset":96,
			"target":34962
		},
		{
			"buffer":0,
			"byteLength":64,
			"byteOffset":192,
			"target":34962
		},
		{
			"buffer":0,
			"byteLength":24,
			"byteOffset":256,
			"target":34963
		},
		{
			"buffer":0,
			"byteLength":2280,
			"byteOffset":280,
			"target":34962
		},
		{
			"buffer":0,
			"byteLength":2280,
			"byteOffset":2560,
			"target":34962
		},
		{
			"buffer":0,
			"byteLength":1520,
			"byteOffset":4840,
			"target":34962
		},
		{
			"buffer":0,
			"byteLength":1584,
			"byteOffset":6360,
			"target":34963
		},
		{
			"buffer":0,
			"byteLength":2520,
			"byteOffset":7944,
			"target":34962
		},
		{
			"buffer":0,
			"byteLength":2520,
			"byteOffset":10464,
			"target":34962
		},
		{
			"buffer":0,
			"byteLength":1680,
			"byteOffset":12984,
			"target":34962
		},
		{
			"buffer":0,
			"byteLength":2004,
			"byteOffset":14664,
			"target":34963
		},
		{
			"buffer":0,
			"byteLength":1536,
			"byteOffset":16668,
			"target":34962
		},
		{
			"buffer":0,
			"byteLength":1536,
			"byteOffset":18204,
			"target":34962
		},
		{
			"buffer":0,
			"byteLength":1024,
			"byteOffset":19740,
			"target":34962
		},
		{
			"buffer":0,
			"byteLength":1008,
			"byteOffset":20764,
			"target":34963
		},
		{
			"buffer":0,
			"byteLength":2280,
			"byteOffset":21772,
			"target":34962
		},
		{
			"buffer":0,
			"byteLength":2280,
			"byteOffset":24052,
			"target":34962
		},
		{
			"buffer":0,
			"byteLength":1520,
			"byteOffset":26332,
			"target":34962
		},
		{
			"buffer":0,
			"byteLength":1764,
			"byteOffset":27852,
			"target":34963
		},
		{
			"buffer":0,
			"byteLength":2232,
			"byteOffset":29616,
			"target":34962
		},
		{
			"buffer":0,
			"byteLength":2232,
			"byteOffset":31848,
			"target":34962
		},
		{
			"buffer":0,
			"byteLength":1488,
			"byteOffset":34080,
			"target":34962
		},
		{
			"buffer":0,
			"byteLength":1584,
			"byteOffset":35568,
			"target":34963
		}
	],
	"buffers":[
		{
			"byteLength":37152,
			"uri":"Hero_Female_Base100.bin"
		}
	]
}
