{
	"asset":{
		"generator":"Khronos glTF Blender I/O v4.0.44",
		"version":"2.0"
	},
	"scene":0,
	"scenes":[
		{
			"extras":{
				"pixunwrap_texel_density":32.0
			},
			"name":"Scene",
			"nodes":[
				0
			]
		}
	],
	"nodes":[
		{
			"mesh":0,
			"name":"BODY",
			"scale":[
				0.14387550950050354,
				0.14387550950050354,
				0.14387550950050354
			]
		}
	],
	"materials":[
		{
			"doubleSided":true,
			"name":"Material",
			"pbrMetallicRoughness":{
				"metallicFactor":0,
				"roughnessFactor":0.5
			}
		}
	],
	"meshes":[
		{
			"name":"HeroVertexGroup",
			"primitives":[
				{
					"attributes":{
						"POSITION":0,
						"NORMAL":1,
						"TEXCOORD_0":2,
						"TANGENT":3
					},
					"indices":4,
					"material":0
				}
			]
		}
	],
	"accessors":[
		{
			"bufferView":0,
			"componentType":5126,
			"count":926,
			"max":[
				5.75368070602417,
				13.862100601196289,
				1.6964221000671387
			],
			"min":[
				-5.75368070602417,
				0.011425967328250408,
				-1.0357345342636108
			],
			"type":"VEC3"
		},
		{
			"bufferView":1,
			"componentType":5126,
			"count":926,
			"type":"VEC3"
		},
		{
			"bufferView":2,
			"componentType":5126,
			"count":926,
			"type":"VEC2"
		},
		{
			"bufferView":3,
			"componentType":5126,
			"count":926,
			"type":"VEC4"
		},
		{
			"bufferView":4,
			"componentType":5123,
			"count":3912,
			"type":"SCALAR"
		}
	],
	"bufferViews":[
		{
			"buffer":0,
			"byteLength":11112,
			"byteOffset":0,
			"target":34962
		},
		{
			"buffer":0,
			"byteLength":11112,
			"byteOffset":11112,
			"target":34962
		},
		{
			"buffer":0,
			"byteLength":7408,
			"byteOffset":22224,
			"target":34962
		},
		{
			"buffer":0,
			"byteLength":14816,
			"byteOffset":29632,
			"target":34962
		},
		{
			"buffer":0,
			"byteLength":7824,
			"byteOffset":44448,
			"target":34963
		}
	],
	"buffers":[
		{
			"byteLength":52272,
			"uri":"Hero_Male_Base-07c0acc64aea775259a025413192347d.bin"
		}
	]
}
