{
	"asset":{
		"generator":"Khronos glTF Blender I/O v4.0.44",
		"version":"2.0"
	},
	"scene":0,
	"scenes":[
		{
			"name":"Scene",
			"nodes":[
				0
			]
		}
	],
	"nodes":[
		{
			"mesh":0,
			"name":"BODY",
			"scale":[
				0.14387550950050354,
				0.14387550950050354,
				0.14387550950050354
			]
		}
	],
	"materials":[
		{
			"doubleSided":true,
			"name":"Material",
			"pbrMetallicRoughness":{}
		}
	],
	"meshes":[
		{
			"name":"HeroVertexGroup",
			"primitives":[
				{
					"attributes":{
						"POSITION":0,
						"NORMAL":1,
						"TEXCOORD_0":2,
						"TANGENT":3
					},
					"indices":4,
					"material":0
				}
			]
		}
	],
	"accessors":[
		{
			"bufferView":0,
			"componentType":5126,
			"count":926,
			"max":[
				5.789549827575684,
				13.890191078186035,
				1.7196019887924194
			],
			"min":[
				-5.789549827575684,
				-9.827391522776452e-08,
				-1.0697685480117798
			],
			"type":"VEC3"
		},
		{
			"bufferView":1,
			"componentType":5126,
			"count":926,
			"type":"VEC3"
		},
		{
			"bufferView":2,
			"componentType":5126,
			"count":926,
			"type":"VEC2"
		},
		{
			"bufferView":3,
			"componentType":5126,
			"count":926,
			"type":"VEC4"
		},
		{
			"bufferView":4,
			"componentType":5123,
			"count":3912,
			"type":"SCALAR"
		}
	],
	"bufferViews":[
		{
			"buffer":0,
			"byteLength":11112,
			"byteOffset":0,
			"target":34962
		},
		{
			"buffer":0,
			"byteLength":11112,
			"byteOffset":11112,
			"target":34962
		},
		{
			"buffer":0,
			"byteLength":7408,
			"byteOffset":22224,
			"target":34962
		},
		{
			"buffer":0,
			"byteLength":14816,
			"byteOffset":29632,
			"target":34962
		},
		{
			"buffer":0,
			"byteLength":7824,
			"byteOffset":44448,
			"target":34963
		}
	],
	"buffers":[
		{
			"byteLength":52272,
			"uri":"Hero_Male_Base-643c0cd16b27a1adf283fff8c6e8811a.bin"
		}
	]
}
