{
	"asset":{
		"generator":"Khronos glTF Blender I/O v4.0.44",
		"version":"2.0"
	},
	"scene":0,
	"scenes":[
		{
			"name":"Scene",
			"nodes":[
				0
			]
		}
	],
	"nodes":[
		{
			"mesh":0,
			"name":"Female_Base_02.015"
		}
	],
	"materials":[
		{
			"doubleSided":true,
			"name":"PCF1_C05_03_BM.png",
			"pbrMetallicRoughness":{
				"baseColorFactor":[
					0.800000011920929,
					0.800000011920929,
					0.800000011920929,
					1
				],
				"metallicFactor":0,
				"roughnessFactor":0.5
			}
		},
		{
			"doubleSided":true,
			"name":"PCF1_C05_02_BM.png",
			"pbrMetallicRoughness":{
				"baseColorFactor":[
					0.800000011920929,
					0.800000011920929,
					0.800000011920929,
					1
				],
				"metallicFactor":0,
				"roughnessFactor":0.5
			}
		},
		{
			"doubleSided":true,
			"name":"PCM1_E00_02_BM.png",
			"pbrMetallicRoughness":{
				"metallicFactor":0,
				"roughnessFactor":0.5
			}
		},
		{
			"doubleSided":true,
			"name":"PCF1_C05_02_BM.png.001",
			"pbrMetallicRoughness":{
				"baseColorFactor":[
					0.800000011920929,
					0.800000011920929,
					0.800000011920929,
					1
				],
				"metallicFactor":0,
				"roughnessFactor":0.5
			}
		},
		{
			"doubleSided":true,
			"name":"PCF1_C00_02_BM.png",
			"pbrMetallicRoughness":{
				"baseColorFactor":[
					0.800000011920929,
					0.800000011920929,
					0.800000011920929,
					1
				],
				"metallicFactor":0,
				"roughnessFactor":0.5
			}
		},
		{
			"doubleSided":true,
			"name":"PCF1_C00_02_BM.png.002",
			"pbrMetallicRoughness":{
				"baseColorFactor":[
					0.800000011920929,
					0.800000011920929,
					0.800000011920929,
					1
				],
				"metallicFactor":0,
				"roughnessFactor":0.5
			}
		}
	],
	"meshes":[
		{
			"name":"Female_Base_02.015",
			"primitives":[
				{
					"attributes":{
						"POSITION":0,
						"NORMAL":1,
						"TEXCOORD_0":2,
						"TANGENT":3
					},
					"indices":4,
					"material":0
				},
				{
					"attributes":{
						"POSITION":5,
						"NORMAL":6,
						"TEXCOORD_0":7,
						"TANGENT":8
					},
					"indices":9,
					"material":1
				},
				{
					"attributes":{
						"POSITION":10,
						"NORMAL":11,
						"TEXCOORD_0":12,
						"TANGENT":13
					},
					"indices":14,
					"material":2
				},
				{
					"attributes":{
						"POSITION":15,
						"NORMAL":16,
						"TEXCOORD_0":17,
						"TANGENT":18
					},
					"indices":19,
					"material":3
				},
				{
					"attributes":{
						"POSITION":20,
						"NORMAL":21,
						"TEXCOORD_0":22,
						"TANGENT":23
					},
					"indices":24,
					"material":4
				},
				{
					"attributes":{
						"POSITION":25,
						"NORMAL":26,
						"TEXCOORD_0":27,
						"TANGENT":28
					},
					"indices":29,
					"material":5
				}
			]
		}
	],
	"accessors":[
		{
			"bufferView":0,
			"componentType":5126,
			"count":8,
			"max":[
				0.09568742662668228,
				1.4464012384414673,
				0.12357968837022781
			],
			"min":[
				-0.09568742662668228,
				1.3818769454956055,
				0.05662083253264427
			],
			"type":"VEC3"
		},
		{
			"bufferView":1,
			"componentType":5126,
			"count":8,
			"type":"VEC3"
		},
		{
			"bufferView":2,
			"componentType":5126,
			"count":8,
			"type":"VEC2"
		},
		{
			"bufferView":3,
			"componentType":5126,
			"count":8,
			"type":"VEC4"
		},
		{
			"bufferView":4,
			"componentType":5123,
			"count":12,
			"type":"SCALAR"
		},
		{
			"bufferView":5,
			"componentType":5126,
			"count":220,
			"max":[
				0.17532116174697876,
				1.5362212657928467,
				0.20656931400299072
			],
			"min":[
				-0.17532116174697876,
				1.1146212816238403,
				-0.11295060068368912
			],
			"type":"VEC3"
		},
		{
			"bufferView":6,
			"componentType":5126,
			"count":220,
			"type":"VEC3"
		},
		{
			"bufferView":7,
			"componentType":5126,
			"count":220,
			"type":"VEC2"
		},
		{
			"bufferView":8,
			"componentType":5126,
			"count":220,
			"type":"VEC4"
		},
		{
			"bufferView":9,
			"componentType":5123,
			"count":792,
			"type":"SCALAR"
		},
		{
			"bufferView":10,
			"componentType":5126,
			"count":240,
			"max":[
				0.19225627183914185,
				1.9979175329208374,
				0.24734166264533997
			],
			"min":[
				-0.19225627183914185,
				1.481300950050354,
				-0.1538718342781067
			],
			"type":"VEC3"
		},
		{
			"bufferView":11,
			"componentType":5126,
			"count":240,
			"type":"VEC3"
		},
		{
			"bufferView":12,
			"componentType":5126,
			"count":240,
			"type":"VEC2"
		},
		{
			"bufferView":13,
			"componentType":5126,
			"count":240,
			"type":"VEC4"
		},
		{
			"bufferView":14,
			"componentType":5123,
			"count":1002,
			"type":"SCALAR"
		},
		{
			"bufferView":15,
			"componentType":5126,
			"count":140,
			"max":[
				0.25988391041755676,
				1.1340808868408203,
				0.1929914802312851
			],
			"min":[
				-0.25988391041755676,
				0.7323050498962402,
				-0.1154589056968689
			],
			"type":"VEC3"
		},
		{
			"bufferView":16,
			"componentType":5126,
			"count":140,
			"type":"VEC3"
		},
		{
			"bufferView":17,
			"componentType":5126,
			"count":140,
			"type":"VEC2"
		},
		{
			"bufferView":18,
			"componentType":5126,
			"count":140,
			"type":"VEC4"
		},
		{
			"bufferView":19,
			"componentType":5123,
			"count":504,
			"type":"SCALAR"
		},
		{
			"bufferView":20,
			"componentType":5126,
			"count":190,
			"max":[
				0.25988391041755676,
				0.7868565320968628,
				0.17714637517929077
			],
			"min":[
				-0.25988391041755676,
				-1.4640502143947742e-08,
				-0.11005003750324249
			],
			"type":"VEC3"
		},
		{
			"bufferView":21,
			"componentType":5126,
			"count":190,
			"type":"VEC3"
		},
		{
			"bufferView":22,
			"componentType":5126,
			"count":190,
			"type":"VEC2"
		},
		{
			"bufferView":23,
			"componentType":5126,
			"count":190,
			"type":"VEC4"
		},
		{
			"bufferView":24,
			"componentType":5123,
			"count":882,
			"type":"SCALAR"
		},
		{
			"bufferView":25,
			"componentType":5126,
			"count":186,
			"max":[
				0.8361133933067322,
				1.4634220600128174,
				0.046004194766283035
			],
			"min":[
				-0.8361133933067322,
				1.332322120666504,
				-0.09489651769399643
			],
			"type":"VEC3"
		},
		{
			"bufferView":26,
			"componentType":5126,
			"count":186,
			"type":"VEC3"
		},
		{
			"bufferView":27,
			"componentType":5126,
			"count":186,
			"type":"VEC2"
		},
		{
			"bufferView":28,
			"componentType":5126,
			"count":186,
			"type":"VEC4"
		},
		{
			"bufferView":29,
			"componentType":5123,
			"count":792,
			"type":"SCALAR"
		}
	],
	"bufferViews":[
		{
			"buffer":0,
			"byteLength":96,
			"byteOffset":0,
			"target":34962
		},
		{
			"buffer":0,
			"byteLength":96,
			"byteOffset":96,
			"target":34962
		},
		{
			"buffer":0,
			"byteLength":64,
			"byteOffset":192,
			"target":34962
		},
		{
			"buffer":0,
			"byteLength":128,
			"byteOffset":256,
			"target":34962
		},
		{
			"buffer":0,
			"byteLength":24,
			"byteOffset":384,
			"target":34963
		},
		{
			"buffer":0,
			"byteLength":2640,
			"byteOffset":408,
			"target":34962
		},
		{
			"buffer":0,
			"byteLength":2640,
			"byteOffset":3048,
			"target":34962
		},
		{
			"buffer":0,
			"byteLength":1760,
			"byteOffset":5688,
			"target":34962
		},
		{
			"buffer":0,
			"byteLength":3520,
			"byteOffset":7448,
			"target":34962
		},
		{
			"buffer":0,
			"byteLength":1584,
			"byteOffset":10968,
			"target":34963
		},
		{
			"buffer":0,
			"byteLength":2880,
			"byteOffset":12552,
			"target":34962
		},
		{
			"buffer":0,
			"byteLength":2880,
			"byteOffset":15432,
			"target":34962
		},
		{
			"buffer":0,
			"byteLength":1920,
			"byteOffset":18312,
			"target":34962
		},
		{
			"buffer":0,
			"byteLength":3840,
			"byteOffset":20232,
			"target":34962
		},
		{
			"buffer":0,
			"byteLength":2004,
			"byteOffset":24072,
			"target":34963
		},
		{
			"buffer":0,
			"byteLength":1680,
			"byteOffset":26076,
			"target":34962
		},
		{
			"buffer":0,
			"byteLength":1680,
			"byteOffset":27756,
			"target":34962
		},
		{
			"buffer":0,
			"byteLength":1120,
			"byteOffset":29436,
			"target":34962
		},
		{
			"buffer":0,
			"byteLength":2240,
			"byteOffset":30556,
			"target":34962
		},
		{
			"buffer":0,
			"byteLength":1008,
			"byteOffset":32796,
			"target":34963
		},
		{
			"buffer":0,
			"byteLength":2280,
			"byteOffset":33804,
			"target":34962
		},
		{
			"buffer":0,
			"byteLength":2280,
			"byteOffset":36084,
			"target":34962
		},
		{
			"buffer":0,
			"byteLength":1520,
			"byteOffset":38364,
			"target":34962
		},
		{
			"buffer":0,
			"byteLength":3040,
			"byteOffset":39884,
			"target":34962
		},
		{
			"buffer":0,
			"byteLength":1764,
			"byteOffset":42924,
			"target":34963
		},
		{
			"buffer":0,
			"byteLength":2232,
			"byteOffset":44688,
			"target":34962
		},
		{
			"buffer":0,
			"byteLength":2232,
			"byteOffset":46920,
			"target":34962
		},
		{
			"buffer":0,
			"byteLength":1488,
			"byteOffset":49152,
			"target":34962
		},
		{
			"buffer":0,
			"byteLength":2976,
			"byteOffset":50640,
			"target":34962
		},
		{
			"buffer":0,
			"byteLength":1584,
			"byteOffset":53616,
			"target":34963
		}
	],
	"buffers":[
		{
			"byteLength":55200,
			"uri":"Hero_Female_Base-f0ac542c191eb98b9445c0a20540b828.bin"
		}
	]
}
